<svg xmlns="http://www.w3.org/2000/svg" viewBox="0 0 770.76 770.76"><defs><style>.cls-1{fill:none;}.cls-2{fill:#0e7073;}.cls-3{fill:#ea5154;}</style></defs><title>Asset 4</title><g id="Layer_2" data-name="Layer 2"><g id="Layer_1-2" data-name="Layer 1"><rect class="cls-1" width="770.76" height="770.76"/><path class="cls-2" d="M116.41,142.85a10.37,10.37,0,0,1-9.64-5.54,9.54,9.54,0,0,1-1.53-4.94c0-.17,0-.7.07-1.67s.83-1.43,2.4-1.5a7.34,7.34,0,0,1,4.7,1.87,5,5,0,0,0,3.44,1.53c1.5,0,3.67-1.3,6.57-3.87,4-3.47,6-6.27,6-8.37a10,10,0,0,0-.23-1.57c-.17-.83-1.4-2.13-3.77-4a79.54,79.54,0,0,0-8-4.94,30.29,30.29,0,0,1-5.4-3.4,18.37,18.37,0,0,1-4.14-5c-1.3-2.17-1.93-5.17-1.93-9a16,16,0,0,1,1-6A38.51,38.51,0,0,1,118.78,70a23.56,23.56,0,0,1,13.88-4.8c5.9,0,10.21,2.27,12.94,6.8a16.19,16.19,0,0,1,2.13,8.71,40.65,40.65,0,0,1-4,15.41c-2.2,5-4.77,7.44-7.67,7.44a6.74,6.74,0,0,1-1.73-.23,5.2,5.2,0,0,1-3.54-5.2,12.63,12.63,0,0,1,.8-4,39.35,39.35,0,0,1,2.6-5.3c.3-.7.83-2.1,1.53-4.14a28.06,28.06,0,0,0,1.87-8c0-1.23-.4-1.87-1.17-1.87-1.73,0-4.57,1.83-8.47,5.47a62.68,62.68,0,0,0-8,8.54c-1.8,2.5-2.7,4.7-2.7,6.57a8.27,8.27,0,0,0,.47,2.13c.57,1.7,2.9,3.6,7.07,5.64,10.44,5.9,15.64,12,15.64,18.48,0,.17,0,1.17-.1,3s-2.2,4.87-6.37,9q-9.66,9.16-17.54,9.17Zm45.07-33.42a2.51,2.51,0,0,0,.93-.47c2-1.8,2.94-3.37,2.94-4.7,0-.57-.23-.83-.7-.83l-.7.07q-.6.05-2.1,3.1c-.1.23-.2.57-.37,1a4.17,4.17,0,0,0-.23,1.5c0,.23.07.33.23.33Zm-2,26.58q-9.06,0-12.11-8.11a21.71,21.71,0,0,1-1.53-8.34,31.29,31.29,0,0,1,2.33-11.44l1.2-2c2.5-4.54,5.34-7.77,8.47-9.74a14.08,14.08,0,0,1,7.64-2.6c.4,0,1.4.1,3,.3s3.1,1.37,4.67,3.47a9.75,9.75,0,0,1,1.67,5.77q0,11.51-11.31,15a17,17,0,0,0-4.07,1.77,5,5,0,0,0-2.17,3.54c0,1.8.5,3,1.53,3.64a10.05,10.05,0,0,0,3.77,1.3l.7.23c3.6,1,5.4,2.1,5.4,3.44,0,.07,0,.47,0,1.2s-1.83,1.5-5.37,2.2a21.91,21.91,0,0,1-3.77.33Zm32,.83c-4,0-7-.7-9.07-2.1-2-1.63-2.94-6.54-2.94-14.71,0-4,.2-8.84.6-14.48a226.82,226.82,0,0,1,4-30.12,25.08,25.08,0,0,1,1.67-6.27,3.86,3.86,0,0,1,3.87-2.33c3.37.17,5.07,1.83,5.07,5.07a8.59,8.59,0,0,1-.23,2q-2,11.41-3.07,22.71-1.65,17.66-1.63,21.51a21,21,0,0,0,.6,5.34,5.36,5.36,0,0,0,1.57,3.07,15.08,15.08,0,0,0,4.07,1.73c1.23.47,2.4.9,3.47,1.33a2.59,2.59,0,0,1,1.7,2.3,3,3,0,0,1-1.63,2.6,14.17,14.17,0,0,1-8,2.33ZM214.12,123c.53,0,1.37-.83,2.47-2.47a74.28,74.28,0,0,0,4.1-7.17,15,15,0,0,0,1.07-6.24,6.9,6.9,0,0,0-.93-3.9c-2.2.87-4,3.7-5.44,8.47-1.23,4.4-1.87,7.57-1.87,9.54,0,1.17.2,1.77.6,1.77Zm19.75,13.27c-1.57,0-3.74-1.57-6.57-4.7a4,4,0,0,0-3.07-1.87,7.68,7.68,0,0,0-3.87,1.77,23.89,23.89,0,0,1-2.5,1.53,10.35,10.35,0,0,1-5.4,1.4q-9.16,0-9.17-15.31c0-8.64,2.23-15.94,6.7-22,2.43-3.3,5-4.94,7.64-4.94,3.07,0,6.24,2,9.54,6,.3.5.53.73.7.73s.53-.57.83-1.67q.45-1.05,1.6-3.3a3.71,3.71,0,0,1,3.57-2.23A5,5,0,0,1,238,94a6,6,0,0,1,1.17,3.87,13,13,0,0,1-.47,3.2Q235,114.5,235,122.5l1,9.17V133c0,2.17-.7,3.27-2.13,3.27Zm59.44-.93h-.47c-3.6,0-5.4-3.44-5.4-10.34,0-2.1.13-4.5.4-7.14s.57-5.1.9-7.4.5-4,.57-5.1a28.73,28.73,0,0,0-2.47,2.47c-2,2.27-3.94,6.1-5.64,11.51-2,6.14-3.84,10.27-5.4,12.37-1.33,1.7-2.8,2.57-4.37,2.57-3.6,0-5.4-2.63-5.4-7.87a38.07,38.07,0,0,1,.57-6.94c.3-1.33.67-3.07,1.07-5.17a51.75,51.75,0,0,0,1.07-8.14c0-1.87-.27-2.8-.83-2.8-.23,0-.6.27-1.17.8-2.9,3.47-5.67,9.31-8.24,17.54a88.43,88.43,0,0,1-3.17,8.61c-1.5,2.84-3.5,4.24-6,4.24-3.14,0-4.7-2.37-4.7-7.07a57.16,57.16,0,0,1,.7-9.07q1.4-23.76,4.1-25.65a2.77,2.77,0,0,1,1.53-.47,5.11,5.11,0,0,1,2.37.7,7,7,0,0,1,3.54,4.6l.33,1.17a12.71,12.71,0,0,0,2.74-2,19.66,19.66,0,0,1,2.57-2,9.32,9.32,0,0,1,4.94-1.17,7.15,7.15,0,0,1,4.37,1.3,29.88,29.88,0,0,1,4.1,4.47,2.51,2.51,0,0,0,1.77,1c.87,0,1.9-.67,3.07-2A17.1,17.1,0,0,1,283.66,96a9.56,9.56,0,0,1,5.4-1.4q10.46,0,10.47,15.18a63.06,63.06,0,0,1-.83,11.27c0,2.67-.1,5.24-.33,7.67-.47,4.17-2.17,6.34-5.07,6.57ZM316.38,123c.53,0,1.37-.83,2.47-2.47a74.29,74.29,0,0,0,4.1-7.17,15,15,0,0,0,1.07-6.24,6.9,6.9,0,0,0-.93-3.9c-2.2.87-4,3.7-5.44,8.47-1.23,4.4-1.87,7.57-1.87,9.54,0,1.17.2,1.77.6,1.77Zm19.75,13.27c-1.57,0-3.74-1.57-6.57-4.7a4,4,0,0,0-3.07-1.87,7.68,7.68,0,0,0-3.87,1.77,23.9,23.9,0,0,1-2.5,1.53,10.35,10.35,0,0,1-5.4,1.4q-9.16,0-9.17-15.31c0-8.64,2.23-15.94,6.7-22,2.43-3.3,5-4.94,7.64-4.94,3.07,0,6.24,2,9.54,6,.3.5.53.73.7.73s.53-.57.83-1.67q.45-1.05,1.6-3.3a3.71,3.71,0,0,1,3.57-2.23A5,5,0,0,1,340.26,94a6,6,0,0,1,1.17,3.87,13,13,0,0,1-.47,3.2q-3.65,13.41-3.67,21.41l1,9.17V133c0,2.17-.7,3.27-2.13,3.27Zm23.68.37q-9.06,0-11.67-11.07a47.64,47.64,0,0,1-.47-6.94q0-15.41,6.6-36.82c2-5.57,4.44-8.34,7.17-8.34,2,.07,3.4,1.43,4.37,4.1a8.57,8.57,0,0,1,.47,2.84,17.46,17.46,0,0,1-.6,4.24,36.88,36.88,0,0,0-.83,6.1q0,.85.3,1a3.71,3.71,0,0,0,1.37.17,6.59,6.59,0,0,1,4.4,2c1.23,1.27,1.83,2.33,1.83,3.2-.1,2-3.1,3.64-9.07,4.8l-1.17.47c-1.8,1.67-3.07,7-3.77,15.91l-.13,4.7a13.73,13.73,0,0,0,.43,4c.27,1,1.13,1.43,2.64,1.43A10.54,10.54,0,0,0,364,128a10.3,10.3,0,0,1,2.47-.33c2.27,0,3.44,1.2,3.54,3.64-.1,1-1,1.93-2.7,2.93a15,15,0,0,1-7.54,2.37Z"/><path class="cls-3" d="M427.22,125.77a16.51,16.51,0,0,0,6.3-3.54,33.42,33.42,0,0,0,5.24-5,9.5,9.5,0,0,0,1.77-5.07,14.44,14.44,0,0,0-.33-2.3c-.23-1.13-1.23-2.23-3-3.34a12.47,12.47,0,0,0-5.77-1.9q-3.3,0-4.7,15.78l-.47,4.6c0,.53.2.8.57.8Zm6.7-38.69a16.19,16.19,0,0,0,6.84-5.54c1.7-2,2.57-3.5,2.57-4.34s-1.1-1.3-3.27-1.3l-2.74.1a3.33,3.33,0,0,0-2.9,2.17,17.64,17.64,0,0,0-.83,6.44v1.87l.33.6Zm-4.7,49.66a13.74,13.74,0,0,1-5.3-1.2,9.37,9.37,0,0,0-2.87-.33,14.36,14.36,0,0,1-3.84-.53,5,5,0,0,1-3.17-2.77l-.13-2c0-4.24,1.67-14.38,5-30.35q3.05-14.16,3-17.64c0-.4-.07-.6-.23-.6s-.6.3-1.17.93c-1.57,2-3.1,3.07-4.6,3.07a4.44,4.44,0,0,1-2.8-1.4c-2.13-2-3.2-3.8-3.2-5.44,0-.07,0-.57.07-1.53s.8-2.1,2.3-3.5a31.13,31.13,0,0,1,10.94-6,6.89,6.89,0,0,0,3.54-2.84c.17-.63.5-.93,1.07-.93a16.09,16.09,0,0,1,2.8.33,62.57,62.57,0,0,0,10,1.3A15.35,15.35,0,0,1,449,68.84a12.48,12.48,0,0,1,4.24,9.64q0,8.36-8.14,15.31c-3,2.67-4.57,4.4-4.57,5.17,1.5,1.5,2.9,3,4.24,4.47,3.7,4.17,5.54,8.61,5.54,13.31a34.34,34.34,0,0,1-.4,3.94c-.3,1.9-1.6,4.17-3.9,6.74a31.39,31.39,0,0,1-8.77,6.74q-4.6,2.6-8,2.6Zm42.49-27.32a2.51,2.51,0,0,0,.93-.47c2-1.8,2.94-3.37,2.94-4.7,0-.57-.23-.83-.7-.83l-.7.07q-.6.05-2.1,3.1c-.1.23-.2.57-.37,1a4.17,4.17,0,0,0-.23,1.5c0,.23.07.33.23.33Zm-2,26.58q-9.06,0-12.11-8.11a21.71,21.71,0,0,1-1.53-8.34,31.29,31.29,0,0,1,2.33-11.44l1.2-2c2.5-4.54,5.34-7.77,8.47-9.74a14.08,14.08,0,0,1,7.64-2.6c.4,0,1.4.1,3,.3s3.1,1.37,4.67,3.47a9.75,9.75,0,0,1,1.67,5.77q0,11.51-11.31,15a17,17,0,0,0-4.07,1.77,5,5,0,0,0-2.17,3.54c0,1.8.5,3,1.53,3.64a10.05,10.05,0,0,0,3.77,1.3l.7.23c3.6,1,5.4,2.1,5.4,3.44,0,.07,0,.47,0,1.2s-1.83,1.5-5.37,2.2a21.91,21.91,0,0,1-3.77.33Zm32,.83c-4,0-7-.7-9.07-2.1-2-1.63-2.94-6.54-2.94-14.71,0-4,.2-8.84.6-14.48a226.81,226.81,0,0,1,4-30.12A25.08,25.08,0,0,1,496,69.17a3.86,3.86,0,0,1,3.87-2.33c3.37.17,5.07,1.83,5.07,5.07a8.6,8.6,0,0,1-.23,2q-2,11.41-3.07,22.71-1.65,17.66-1.63,21.51a21,21,0,0,0,.6,5.34,5.36,5.36,0,0,0,1.57,3.07,15.08,15.08,0,0,0,4.07,1.73c1.23.47,2.4.9,3.47,1.33a2.59,2.59,0,0,1,1.7,2.3,3,3,0,0,1-1.63,2.6,14.17,14.17,0,0,1-8,2.33ZM524.34,123c.53,0,1.37-.83,2.47-2.47a74.28,74.28,0,0,0,4.1-7.17,15,15,0,0,0,1.07-6.24,6.9,6.9,0,0,0-.93-3.9c-2.2.87-4,3.7-5.44,8.47-1.23,4.4-1.87,7.57-1.87,9.54,0,1.17.2,1.77.6,1.77Zm19.75,13.27c-1.57,0-3.74-1.57-6.57-4.7a4,4,0,0,0-3.07-1.87,7.68,7.68,0,0,0-3.87,1.77,23.89,23.89,0,0,1-2.5,1.53,10.35,10.35,0,0,1-5.4,1.4q-9.16,0-9.17-15.31c0-8.64,2.23-15.94,6.7-22,2.43-3.3,5-4.94,7.64-4.94,3.07,0,6.24,2,9.54,6,.3.5.53.73.7.73s.53-.57.83-1.67q.45-1.05,1.6-3.3a3.71,3.71,0,0,1,3.57-2.23A5,5,0,0,1,548.22,94a6,6,0,0,1,1.17,3.87,13,13,0,0,1-.47,3.2q-3.65,13.41-3.67,21.41l1,9.17V133c0,2.17-.7,3.27-2.13,3.27Zm6.5,29.65H550a6,6,0,0,1-3.84-1.1c-.9-.77-1.33-1.4-1.33-1.93a3.79,3.79,0,0,1,.23-1c.17-.5,1.73-1.23,4.7-2.17a8.45,8.45,0,0,0,2.23-.83c.47-.87,1.07-4.9,1.77-12.14l.83-7.17c.37-4.77.7-9.64.93-14.58a245.08,245.08,0,0,1,2.1-24.72c.87-5,2.47-7.54,4.84-7.54,1.1,0,2.1.73,3.07,2.23,1.23,2,1.87,4.94,1.87,8.94,0,2.3-.37,8.57-1.07,18.84q-2.25,31.42-6.1,39.29a7.32,7.32,0,0,1-3.87,2.84,16.47,16.47,0,0,1-5.77,1Zm14.48-84a8.62,8.62,0,0,1-2.23-.37q-3.9-2.7-3.9-6.1c0-2.2,1.13-3.37,3.4-3.54a5.29,5.29,0,0,1,4.34,1.93,7.07,7.07,0,0,1,1.57,4.54c0,2.37-1.07,3.54-3.17,3.54ZM584.71,123c.53,0,1.37-.83,2.47-2.47a74.26,74.26,0,0,0,4.1-7.17,15,15,0,0,0,1.07-6.24,6.9,6.9,0,0,0-.93-3.9c-2.2.87-4,3.7-5.44,8.47-1.23,4.4-1.87,7.57-1.87,9.54,0,1.17.2,1.77.6,1.77Zm19.75,13.27c-1.57,0-3.74-1.57-6.57-4.7a4,4,0,0,0-3.07-1.87,7.68,7.68,0,0,0-3.87,1.77,23.89,23.89,0,0,1-2.5,1.53,10.35,10.35,0,0,1-5.4,1.4q-9.16,0-9.17-15.31c0-8.64,2.23-15.94,6.7-22,2.43-3.3,5-4.94,7.64-4.94,3.07,0,6.24,2,9.54,6,.3.5.53.73.7.73s.53-.57.83-1.67q.45-1.05,1.6-3.3a3.71,3.71,0,0,1,3.57-2.23A5,5,0,0,1,608.59,94a6,6,0,0,1,1.17,3.87,13,13,0,0,1-.47,3.2q-3.65,13.41-3.67,21.41l1,9.17V133c0,2.17-.7,3.27-2.13,3.27Zm16.38-1.4a4.77,4.77,0,0,1-4-2.1c-1.23-1.73-1.87-5-1.87-9.77a78.49,78.49,0,0,1,.7-8.24l.23-2.47a61.41,61.41,0,0,1,2.6-14.08c1.23-3.8,3-5.7,5.27-5.7a6.1,6.1,0,0,1,2.6.7c2,1.1,3.07,2.57,3.07,4.37l-.27,1.4a.72.72,0,0,0,.07.33.18.18,0,0,0,.2.13,3.42,3.42,0,0,0,1.5-.7c4.1-2.57,7.84-3.87,11.21-3.87h2c1.1,0,2.47.73,4.17,2.17s2.53,2.6,2.53,3.47c0,1.43-1.57,2.4-4.74,2.93-4.54.87-7.9,2.47-10.11,4.84q-3.85,4.35-6.57,13.41c-1.57,5-3,8.47-4.17,10.34s-2.7,2.83-4.44,2.83Zm38-11a6.14,6.14,0,0,1-3.77-1.67c-1.1-1.17-1.63-3.8-1.63-7.87q0-11.41,4.6-34c.17-.93.37-1.9.6-2.87a1.79,1.79,0,0,1,2-1.47,5.68,5.68,0,0,1,4.7,2.47,6.52,6.52,0,0,1,1.07,3.77l-.1,1.63q-2.35,26.82-3.9,36.12c-.4,2.6-1.57,3.9-3.54,3.9Zm-2.47,20.11a7.27,7.27,0,0,1-4.94-2.13,21.56,21.56,0,0,1-.83-6v-1.17c.17-2.43,1.57-3.64,4.24-3.64,3.24,0,5.07.77,5.54,2.33a11.12,11.12,0,0,1,.47,3.3c-.23,4.87-1.7,7.3-4.47,7.3Z"/></g></g></svg>