<?xml version="1.0" encoding="UTF-8"?>
<!DOCTYPE svg PUBLIC "-//W3C//DTD SVG 1.1//EN" "http://www.w3.org/Graphics/SVG/1.1/DTD/svg11.dtd">
<!-- Creator: CorelDRAW X8 -->
<svg xmlns="http://www.w3.org/2000/svg" xml:space="preserve" width="4.62407in" height="1.32589in" version="1.1" style="shape-rendering:geometricPrecision; text-rendering:geometricPrecision; image-rendering:optimizeQuality; fill-rule:evenodd; clip-rule:evenodd"
viewBox="0 0 10919 3131"
 xmlns:xlink="http://www.w3.org/1999/xlink">
 <defs>
  <style type="text/css">
   <![CDATA[
    .fil0 {fill:#FEFEFE}
    .fil1 {fill:#FEFEFE;fill-rule:nonzero}
   ]]>
  </style>
 </defs>
 <g id="Layer_x0020_1">
  <metadata id="CorelCorpID_0Corel-Layer"/>
  <g id="_2834398507568">
   <path class="fil0" d="M1881 289c-45,-7 -67,22 -68,56 -1,24 6,24 10,45l4 49c9,152 -79,274 -221,332 -36,15 -27,7 -44,13 -62,22 -57,106 13,116 35,6 133,-37 175,-66 157,-106 227,-284 190,-468 -5,-24 -8,-71 -59,-77z"/>
   <path class="fil0" d="M1679 323c-24,-2 -44,0 -59,29 -22,42 43,113 -35,196 -47,49 -92,41 -113,59 -52,45 -5,166 156,63 157,-100 142,-342 51,-347z"/>
   <path class="fil0" d="M1478 372c-92,-27 -131,109 -30,137 85,24 132,-109 30,-137z"/>
   <path class="fil1" d="M2094 3131l-358 0c-37,0 -63,-7 -78,-21 -15,-14 -22,-34 -22,-59 0,-19 5,-55 16,-108 11,-54 22,-110 34,-169l331 -1535c87,-20 177,-35 271,-44 94,-9 183,-14 268,-14 85,0 168,9 248,25 81,17 153,45 216,86 64,41 114,95 153,163 38,69 58,155 58,258 0,96 -16,190 -48,283 -31,92 -79,174 -143,247 -64,73 -144,132 -239,178 -94,45 -205,67 -331,67 -47,0 -92,-2 -135,-6 -42,-5 -75,-10 -99,-16l-142 665zm216 -1022c40,7 78,11 116,11 59,0 109,-12 149,-36 41,-24 73,-55 98,-93 24,-38 42,-80 53,-127 11,-47 16,-93 16,-137 0,-129 -74,-194 -222,-194 -21,0 -40,1 -56,4 -16,3 -26,5 -32,7l-122 565z"/>
   <path class="fil1" d="M724 1914c56,-44 111,-97 166,-158 55,-61 108,-122 158,-186 51,-64 98,-127 141,-190 43,-62 81,-118 112,-168l394 0c55,0 83,21 83,63 0,10 -2,20 -6,31 -4,11 -11,24 -19,40 -9,15 -21,35 -36,58 -15,23 -34,51 -58,84 -67,100 -154,206 -263,318 -108,113 -222,218 -340,316 47,62 91,136 131,220 41,84 77,172 110,263 33,92 61,183 84,273 24,91 43,175 56,253l-411 0c-49,0 -83,-13 -100,-37 -18,-25 -30,-54 -36,-85 -8,-35 -19,-83 -32,-144 -14,-61 -32,-127 -52,-197 -21,-71 -44,-141 -69,-212 -26,-71 -54,-135 -86,-190l-178 865 -372 0c-38,0 -64,-7 -79,-21 -15,-14 -22,-34 -22,-59 0,-19 5,-55 16,-108 11,-54 22,-110 34,-169 86,-414 465,-2236 452,-2273 -22,-60 -68,-57 -96,-80l11 -35 152 -1c-82,-190 195,-251 244,-284 68,-47 54,-83 81,-101l6 35c9,103 87,88 141,138 107,102 -14,185 -21,215l151 -4c-6,60 -13,40 -64,59 -55,22 -200,635 -226,753 -63,285 -98,432 -157,718z"/>
   <path class="fil1" d="M3660 2660c-28,86 -53,169 -78,252 -25,83 -47,155 -63,219l-327 0c-36,0 -64,-6 -78,-19 -14,-14 -22,-31 -22,-50 0,-25 3,-47 8,-70 6,-22 14,-47 23,-72 102,-307 213,-598 332,-875 119,-277 249,-554 396,-833l443 0c36,0 64,8 83,25 19,19 31,44 39,80 11,64 22,136 33,216 8,80 17,169 25,260 6,92 11,189 17,291 2,103 5,202 5,305 0,122 -3,243 -5,365 -3,122 -9,247 -17,377l-354 0c-34,0 -56,-8 -70,-25 -14,-14 -19,-36 -19,-66l3 -48c2,-22 5,-49 8,-83 3,-30 8,-63 11,-94 3,-30 3,-61 6,-91 2,-28 2,-50 2,-64l-401 0zm410 -1121c-72,152 -131,290 -178,421 -47,130 -88,249 -124,357l307 0c3,-36 6,-81 9,-130 2,-47 2,-103 2,-167 0,-66 0,-144 -2,-229 -3,-86 -9,-169 -14,-252z"/>
   <path class="fil1" d="M6102 2312c-35,29 -73,56 -108,83 -35,30 -70,60 -99,89 -30,30 -57,62 -78,97 -22,35 -38,73 -46,113l552 0c68,0 100,33 100,95l0 283 -1051 0c-68,0 -100,-32 -100,-95l0 -126c0,-95 13,-178 40,-251 25,-73 60,-137 100,-194 41,-57 84,-108 135,-154 51,-45 100,-86 148,-126 57,-46 103,-84 138,-116 35,-30 64,-60 86,-87 19,-24 35,-51 43,-75 8,-24 11,-51 11,-81 0,-75 -24,-124 -70,-143 -49,-19 -119,-27 -210,-27 -68,0 -130,3 -181,6 -54,2 -92,5 -111,5 -67,0 -102,-32 -102,-97l0 -213c46,-21 116,-43 205,-65 89,-18 189,-29 299,-29 218,0 377,46 477,137 100,95 151,221 151,386 0,75 -8,143 -27,199 -19,57 -46,108 -75,154 -30,46 -65,89 -105,127 -41,37 -81,72 -122,105z"/>
   <path class="fil1" d="M7191 2155c0,130 2,232 8,310 5,78 16,140 29,181 14,40 33,67 57,81 24,13 57,21 97,21 43,0 78,-8 102,-21 25,-14 41,-41 54,-81 14,-41 22,-103 25,-181 2,-78 5,-183 5,-312 0,-130 -3,-232 -8,-310 -5,-79 -14,-138 -27,-178 -14,-41 -35,-70 -59,-84 -25,-13 -57,-19 -97,-19 -38,0 -68,6 -92,19 -24,14 -43,43 -57,84 -13,40 -24,99 -29,178 -6,78 -8,183 -8,312zm-453 0c0,-202 16,-364 46,-488 29,-124 72,-221 129,-288 57,-67 124,-116 202,-140 78,-24 167,-35 264,-35 97,0 186,11 264,35 79,24 146,73 203,140 56,67 99,164 129,288 30,124 46,286 46,488 0,202 -16,364 -46,488 -30,124 -73,221 -129,289 -57,70 -124,116 -203,140 -78,24 -167,35 -264,35 -97,0 -186,-11 -264,-35 -78,-24 -145,-70 -202,-140 -57,-68 -100,-165 -129,-289 -30,-124 -46,-286 -46,-488z"/>
   <path class="fil1" d="M9128 2312c-35,29 -73,56 -108,83 -35,30 -70,60 -99,89 -30,30 -57,62 -79,97 -21,35 -37,73 -45,113l552 0c68,0 100,33 100,95l0 283 -1051 0c-68,0 -100,-32 -100,-95l0 -126c0,-95 13,-178 40,-251 25,-73 60,-137 100,-194 40,-57 84,-108 135,-154 51,-45 100,-86 148,-126 57,-46 103,-84 138,-116 35,-30 64,-60 86,-87 19,-24 35,-51 43,-75 8,-24 11,-51 11,-81 0,-75 -24,-124 -70,-143 -49,-19 -119,-27 -211,-27 -67,0 -129,3 -180,6 -54,2 -92,5 -111,5 -67,0 -102,-32 -102,-97l0 -213c46,-21 116,-43 205,-65 89,-18 188,-29 299,-29 218,0 377,46 477,137 100,95 151,221 151,386 0,75 -8,143 -27,199 -19,57 -46,108 -75,154 -30,46 -65,89 -106,127 -40,37 -80,72 -121,105z"/>
   <path class="fil1" d="M9837 3072c-29,0 -49,-11 -62,-32 -12,-21 -18,-55 -18,-101l0 -45c0,-46 6,-80 18,-101 13,-21 33,-32 62,-32l352 0 0 -1191 -360 53c-31,0 -52,-24 -65,-73 -14,-49 -20,-99 -20,-150 0,-41 23,-65 69,-74l660 -122c23,0 47,6 72,20 25,13 37,27 37,43l0 1494 258 0c28,0 48,11 61,32 12,21 18,55 18,101l0 45c0,46 -6,80 -18,101 -13,21 -33,32 -61,32l-1003 0z"/>
  </g>
 </g>
</svg>
