<svg xmlns="http://www.w3.org/2000/svg" viewBox="0 0 332.92 95.46"><defs><style>.cls-1{fill:#ea5154;}.cls-2{fill:#0e7073;}</style></defs><title>Asset 2</title><g id="Layer_2" data-name="Layer 2"><g id="Layer_1-2" data-name="Layer 1"><path class="cls-1" d="M57.35,8.81a1.66,1.66,0,0,0-2.07,1.71c0,.73.18.73.3,1.37l.12,1.49C56,18,53.3,21.74,49,23.51a5.85,5.85,0,0,1-1.34.4,1.8,1.8,0,0,0,.4,3.54c1.07.18,4.06-1.13,5.34-2a13.6,13.6,0,0,0,5.79-14.27C59,10.43,58.91,9,57.35,8.81Z"/><path class="cls-1" d="M51.19,9.85a1.56,1.56,0,0,0-1.8.88c-.67,1.28,1.31,3.45-1.07,6-1.43,1.49-2.81,1.25-3.45,1.8-1.59,1.37-.15,5.06,4.76,1.92S54,10,51.19,9.85Z"/><path class="cls-1" d="M45.06,11.34c-2.81-.82-4,3.32-.91,4.18A2.14,2.14,0,1,0,45.06,11.34Z"/><path class="cls-2" d="M63.85,95.46H52.93a3.47,3.47,0,0,1-2.38-.64,2.35,2.35,0,0,1-.67-1.8,19.37,19.37,0,0,1,.49-3.29c.34-1.65.67-3.35,1-5.15L61.5,37.78a64,64,0,0,1,8.26-1.34c2.87-.27,5.58-.43,8.17-.43a38.54,38.54,0,0,1,7.56.76,19.13,19.13,0,0,1,6.59,2.62,14,14,0,0,1,4.66,5,16.14,16.14,0,0,1,1.77,7.87A26.31,26.31,0,0,1,97,60.86a22,22,0,0,1-4.36,7.53,22.69,22.69,0,0,1-7.29,5.43,23.21,23.21,0,0,1-10.09,2q-2.15,0-4.12-.18a26.05,26.05,0,0,1-3-.49ZM70.43,64.3a20.39,20.39,0,0,0,3.54.34,8.72,8.72,0,0,0,4.54-1.1,8.88,8.88,0,0,0,3-2.84,12.53,12.53,0,0,0,1.62-3.87,18.33,18.33,0,0,0,.49-4.18c0-3.93-2.26-5.92-6.77-5.92a9.55,9.55,0,0,0-1.71.12,8.92,8.92,0,0,0-1,.21Z"/><path class="cls-2" d="M22.07,58.36a41.07,41.07,0,0,0,5.06-4.82c1.68-1.86,3.29-3.72,4.82-5.67s3-3.87,4.3-5.79,2.47-3.6,3.41-5.12h12c1.68,0,2.53.64,2.53,1.92a2.73,2.73,0,0,1-.18.95A13.44,13.44,0,0,1,53.45,41c-.27.46-.64,1.07-1.1,1.77s-1,1.55-1.77,2.56a69.86,69.86,0,0,1-8,9.7A123.15,123.15,0,0,1,32.2,64.7a38.6,38.6,0,0,1,4,6.71,82,82,0,0,1,3.35,8q1.51,4.21,2.56,8.32c.73,2.77,1.31,5.34,1.71,7.71H31.28a3.56,3.56,0,0,1-3-1.13,6.54,6.54,0,0,1-1.1-2.59c-.24-1.07-.58-2.53-1-4.39s-1-3.87-1.59-6-1.34-4.3-2.1-6.46a36.64,36.64,0,0,0-2.62-5.79L14.42,95.46H3.08a3.51,3.51,0,0,1-2.41-.64A2.35,2.35,0,0,1,0,93a19.37,19.37,0,0,1,.49-3.29c.34-1.65.67-3.35,1-5.15C4.15,72,15.7,16.4,15.31,15.28c-.67-1.83-2.07-1.74-2.93-2.44l.34-1.07,4.63,0c-2.5-5.79,5.95-7.65,7.44-8.66C26.86,1.65,26.43.55,27.26,0l.18,1.07c.27,3.14,2.65,2.68,4.3,4.21,3.26,3.11-.43,5.64-.64,6.56l4.6-.12c-.18,1.83-.4,1.22-2,1.8s-6.1,19.36-6.89,23C24.94,45.16,23.87,49.64,22.07,58.36Z"/><path class="cls-2" d="M111.59,81.1c-.85,2.62-1.62,5.15-2.38,7.68s-1.43,4.73-1.92,6.68h-10a3.67,3.67,0,0,1-2.38-.58,2.13,2.13,0,0,1-.67-1.52,9.74,9.74,0,0,1,.24-2.13c.18-.67.43-1.43.7-2.2q4.66-14,10.12-26.68c3.63-8.45,7.59-16.89,12.07-25.4h13.51a3.69,3.69,0,0,1,2.53.76,4.71,4.71,0,0,1,1.19,2.44q.5,2.93,1,6.59c.24,2.44.52,5.15.76,7.93s.34,5.76.52,8.87.15,6.16.15,9.3c0,3.72-.09,7.41-.15,11.13s-.27,7.53-.52,11.49H125.62a2.56,2.56,0,0,1-2.13-.76,2.74,2.74,0,0,1-.58-2l.09-1.46c.06-.67.15-1.49.24-2.53s.24-1.92.34-2.87.09-1.86.18-2.77.06-1.52.06-2Zm12.5-34.18c-2.2,4.63-4,8.84-5.43,12.84s-2.68,7.59-3.78,10.88h9.36c.09-1.1.18-2.47.27-4s.06-3.14.06-5.09,0-4.39-.06-7S124.25,49.45,124.09,46.92Z"/><path class="cls-1" d="M186,70.49c-1.07.88-2.23,1.71-3.29,2.53s-2.13,1.83-3,2.71a15.57,15.57,0,0,0-2.38,3,10.27,10.27,0,0,0-1.4,3.45h16.83c2.07,0,3,1,3,2.9v8.63h-32c-2.07,0-3-1-3-2.9V86.93A21.91,21.91,0,0,1,162,79.27a23.53,23.53,0,0,1,3-5.92,28.94,28.94,0,0,1,4.12-4.7c1.55-1.37,3-2.62,4.51-3.84,1.74-1.4,3.14-2.56,4.21-3.54a21.25,21.25,0,0,0,2.62-2.65,8,8,0,0,0,1.31-2.29,7.81,7.81,0,0,0,.34-2.47c0-2.29-.73-3.78-2.13-4.36a18.61,18.61,0,0,0-6.4-.82c-2.07,0-4,.09-5.52.18s-2.81.15-3.38.15c-2,0-3.11-1-3.11-3V39.58a38.29,38.29,0,0,1,6.25-2,46,46,0,0,1,9.12-.88q10,0,14.54,4.18c3,2.9,4.6,6.74,4.6,11.77a19.22,19.22,0,0,1-.82,6.07,21.61,21.61,0,0,1-5.49,8.57C188.52,68.42,187.3,69.49,186,70.49Z"/><path class="cls-1" d="M219.25,65.71c0,4,.06,7.07.24,9.45a24.4,24.4,0,0,0,.88,5.52,4.38,4.38,0,0,0,1.74,2.47,6.26,6.26,0,0,0,3,.64,6.66,6.66,0,0,0,3.11-.64,4,4,0,0,0,1.65-2.47,20.91,20.91,0,0,0,.76-5.52c.06-2.38.15-5.58.15-9.51s-.09-7.07-.24-9.45a23.45,23.45,0,0,0-.82-5.43,4.59,4.59,0,0,0-1.8-2.56,6.38,6.38,0,0,0-3-.58,5.81,5.81,0,0,0-2.81.58,4.54,4.54,0,0,0-1.74,2.56,22.86,22.86,0,0,0-.88,5.43C219.31,58.57,219.25,61.77,219.25,65.71Zm-13.81,0a65,65,0,0,1,1.4-14.88A20.81,20.81,0,0,1,210.78,42a13.24,13.24,0,0,1,6.16-4.27,30.89,30.89,0,0,1,16.1,0A13.17,13.17,0,0,1,239.22,42a21.59,21.59,0,0,1,3.93,8.78,65,65,0,0,1,1.4,14.88,65,65,0,0,1-1.4,14.88,21.93,21.93,0,0,1-3.93,8.81A12.55,12.55,0,0,1,233,93.67a30.89,30.89,0,0,1-16.1,0,12.61,12.61,0,0,1-6.16-4.27,21.13,21.13,0,0,1-3.93-8.81A65,65,0,0,1,205.44,65.71Z"/><path class="cls-1" d="M278.31,70.49c-1.07.88-2.23,1.71-3.29,2.53s-2.13,1.83-3,2.71a17,17,0,0,0-2.41,3,10.88,10.88,0,0,0-1.37,3.45h16.83c2.07,0,3,1,3,2.9v8.63h-32c-2.07,0-3-1-3-2.9V86.93a21.91,21.91,0,0,1,1.22-7.65,23.53,23.53,0,0,1,3-5.92,27.55,27.55,0,0,1,4.12-4.7c1.55-1.37,3-2.62,4.51-3.84,1.74-1.4,3.14-2.56,4.21-3.54a21.25,21.25,0,0,0,2.62-2.65A8,8,0,0,0,274,56.35a7.81,7.81,0,0,0,.34-2.47c0-2.29-.73-3.78-2.13-4.36a18.69,18.69,0,0,0-6.43-.82c-2,0-3.93.09-5.49.18s-2.81.15-3.38.15c-2,0-3.11-1-3.11-3V39.58a38.29,38.29,0,0,1,6.25-2,45.77,45.77,0,0,1,9.12-.88q10,0,14.54,4.18c3,2.9,4.6,6.74,4.6,11.77a19.22,19.22,0,0,1-.82,6.07,21.66,21.66,0,0,1-2.29,4.7A20.57,20.57,0,0,1,282,67.29C280.78,68.42,279.56,69.49,278.31,70.49Z"/><path class="cls-1" d="M299.93,93.67a2,2,0,0,1-1.89-1,6.52,6.52,0,0,1-.55-3.08V88.24a6.52,6.52,0,0,1,.55-3.08,2,2,0,0,1,1.89-1h10.73V47.87l-11,1.62c-.95,0-1.59-.73-2-2.23a16.54,16.54,0,0,1-.61-4.57c0-1.25.7-2,2.1-2.26l20.12-3.72a4.44,4.44,0,0,1,2.2.61c.76.4,1.13.82,1.13,1.31V84.18h7.87a2,2,0,0,1,1.86,1,6.52,6.52,0,0,1,.55,3.08v1.37a6.52,6.52,0,0,1-.55,3.08,2,2,0,0,1-1.86,1Z"/></g></g></svg>