<?xml version="1.0" encoding="iso-8859-1"?>
<!-- Generator: Adobe Illustrator 19.0.0, SVG Export Plug-In . SVG Version: 6.00 Build 0)  -->
<svg version="1.1" id="Capa_1" xmlns="http://www.w3.org/2000/svg" xmlns:xlink="http://www.w3.org/1999/xlink" x="0px" y="0px"
	 viewBox="0 0 512 512" style="enable-background:new 0 0 512 512;" xml:space="preserve">
<path style="fill:#B32834;" d="M147.819,109.385v81.939c0,44.674,36.215,80.889,80.889,80.889h60.666
	c44.674,0,80.889-36.215,80.889-80.889v-84.196L147.819,109.385z"/>
<path style="fill:#FFC98C;" d="M218.064,211.245c-25.914,13.336-41.892,37.646-41.699,63.385v22.96l-10.659,40.593
	c-2.084,7.938-0.405,16.217,4.608,22.715c5.013,6.498,12.594,10.226,20.8,10.226h30.484V209.425L218.064,211.245z"/>
<path style="fill:#F7A16E;" d="M346.702,338.182l-11.067-42.148v-21.662c0-19.429-8.856-37.825-24.936-51.799
	c-15.081-13.106-34.933-20.659-54.47-20.723h-0.25c-11.605,0-23.411,2.654-34.38,7.685v161.588h99.696
	c8.207,0,15.79-3.727,20.801-10.227C347.108,354.398,348.786,346.119,346.702,338.182z"/>
<path style="fill:#FFC98C;" d="M256.204,394.303l-30.905-30.905v121.625c-9.073,3.295-15.453,12.228-15.453,22.382
	c0,2.538,2.057,4.596,4.596,4.596h37.168c2.538,0,4.596-2.057,4.596-4.596v-0.555c0-0.871-0.052-1.73-0.145-2.575h0.145V394.303
	H256.204z"/>
<path style="fill:#F7A16E;" d="M287.109,484.996v-119.02l-30.905,28.328v109.97h0.21c-0.135,1.028-0.21,2.072-0.21,3.131
	c0,2.538,2.057,4.596,4.596,4.596h37.168c2.538,0,4.596-2.057,4.596-4.596v-0.555C302.562,496.757,296.111,488.178,287.109,484.996z
	"/>
<path style="fill:#D9435B;" d="M330.957,399.907l-25.819-98.325v-25.149c0-11.276-9.133-20.506-20.41-20.435
	c-0.136,0.001-0.272,0.002-0.409,0.005c-4.762,0.091-13.311,3.602-17.035,6.04c-6.708,4.393-15.452,4.393-22.16,0
	c-3.672-2.404-11.03-5.845-15.8-6.028V229.73h-15.453v32.235c-4.062,3.917-6.601,9.418-6.601,15.498v24.119l-25.819,98.325
	c-2.572,9.797,4.818,19.378,14.946,19.378h119.613C326.139,419.285,333.529,409.704,330.957,399.907z"/>
<path style="fill:#B32834;" d="M330.957,399.907L307.1,309.055c-1.303-4.961-1.962-10.07-1.962-15.2l0,0v-17.422
	c0-6.611-3.152-12.5-8.022-16.243V229.73h-15.453v26.59c-2.288,0.437-4.938,1.283-7.431,2.279v35.257H207.27l0,0
	c0,5.129-0.659,10.238-1.962,15.199l-0.067,0.253h69.975c0.01,0.041,0.018,0.082,0.028,0.123l20.731,78.948H184.479l-3.028,11.528
	c-2.572,9.796,4.817,19.378,14.946,19.378H316.01C326.14,419.285,333.529,409.704,330.957,399.907z"/>
<path style="fill:#FFC98C;" d="M305.251,51.765c-14.416-10.258-31.162-16.481-49.024-16.481c-48.729,0-89.131,46.313-96.631,94.488
	c-2.762-1.162-5.8-1.805-8.985-1.805c-12.801,0-23.179,10.378-23.179,23.179s10.378,23.179,23.179,23.179
	c4.156,0,8.052-1.099,11.425-3.014c2.831,9.673,7.177,18.716,12.707,26.981c2.71,4.052,18.241,16.204,40.381,20.837l52.758,11.04
	l47.346-46.432C353.663,146.046,349.21,83.042,305.251,51.765z"/>
<path style="fill:#F7A16E;" d="M361.39,127.968c-2.977,0-5.825,0.569-8.44,1.592c-0.103-0.691-0.208-1.383-0.325-2.071
	c-5.189-30.565-22.141-58.41-47.374-75.723c14.376,19.829,21.638,42.475,21.638,66.179c0,53.311-43.827,96.528-97.89,96.528
	c-20.07,0-38.726-5.96-54.257-16.177c14.928,22.064,38.828,37.717,66.557,41.903c9.829,1.483,19.991,1.472,29.82-0.009
	c37.949-5.721,68.773-32.931,79.193-68.692c3.293,1.797,7.062,2.831,11.078,2.831c12.802,0,23.179-10.378,23.179-23.179
	S374.191,127.968,361.39,127.968z"/>
<g>
	<circle style="fill:#35404A;" cx="220.665" cy="152.106" r="7.726"/>
	<circle style="fill:#35404A;" cx="289.883" cy="152.106" r="7.726"/>
	<path style="fill:#35404A;" d="M261.667,153.369c-1.459,1.46-3.4,2.263-5.463,2.263s-4.004-0.804-5.463-2.263
		c-3.017-3.016-7.91-3.017-10.926,0c-3.018,3.017-3.018,7.91-0.001,10.927c4.378,4.378,10.199,6.789,16.39,6.789
		s12.012-2.412,16.39-6.789c3.017-3.017,3.017-7.91-0.001-10.927C269.578,150.352,264.685,150.352,261.667,153.369z"/>
</g>
<circle style="fill:#F7A16E;" cx="150.612" cy="151.179" r="7.726"/>
<circle style="fill:#CE795F;" cx="362.541" cy="151.179" r="7.726"/>
<path style="fill:#D9435B;" d="M256.361,0c-8.435,0-19.377,1.233-29.256,3.131c-12.33,2.367-21.277,13.096-21.277,25.652
	c-14.033-0.007-27.255,6.588-35.678,17.811c-14.017,18.676-23.381,40.156-22.329,62.792l11.502,20.261
	c0.142,0.027,0.208,0.04,0.35,0.067l66.567-53.524l94.906,40.159c17.962,7.601,38.746,0.072,47.674-17.268l0,0
	C351.516,52.502,308.927,0,256.361,0z"/>
<path style="fill:#B32834;" d="M328.185,34.449c8.206,10.827,11.721,31.12,11.721,44.504c0,19.767-8.168,26.187-26.362,22.246
	c-25.111-5.439-63.007-25.565-87.873-62.267c-4.609-6.802-12.197-10.358-19.843-10.15c0,12.684,1.779,15.612-2.221,42.421
	c-4.508,20.507-23.016,35.391-44.007,35.391c-0.834,0-5.296,0.044-11.85,0.13c0.009,0.885,0.029,1.772,0.07,2.661l11.5,20.255
	c0.094,0.044,0.188,0.091,0.28,0.132c32.634-0.003,59.906-22.973,66.639-53.585c32.96,33.901,78.156,53.372,126.711,53.372
	l17.314-22.431C370.264,85.578,341.189,47.727,328.185,34.449z"/>
<g>
</g>
<g>
</g>
<g>
</g>
<g>
</g>
<g>
</g>
<g>
</g>
<g>
</g>
<g>
</g>
<g>
</g>
<g>
</g>
<g>
</g>
<g>
</g>
<g>
</g>
<g>
</g>
<g>
</g>
</svg>
